<svg height="511pt" viewBox="-25 1 511 511.99983" width="511pt" xmlns="http://www.w3.org/2000/svg"><path d="m231.011719 68.273438c1.25-.050782 2.503906-.035157 3.753906.042968-.144531 0-.273437-.070312-.417969-.078125-1.136718-.109375-2.21875.035157-3.335937.035157zm0 0" fill="#78b9eb"/><path d="m241.324219 69.785156c-1.300781-.386718-2.625-.6875-3.960938-.90625 1.335938.21875 2.660157.519532 3.960938.90625zm0 0" fill="#78b9eb"/><path d="m196.863281 102.222656v1.453125c-.042969-13.027343 6.925781-25.074219 18.242188-31.527343-11.199219 5.855468-18.222657 17.441406-18.242188 30.074218zm0 0" fill="#78b9eb"/><path d="m246.90625 72.148438c-.453125-.253907-.941406-.425782-1.410156-.65625.46875.222656.957031.410156 1.410156.65625zm0 0" fill="#78b9eb"/><path d="m227.253906 68.316406c-.855468.101563-1.707031.347656-2.5625.511719.835938-.164063 1.675782-.417969 2.5625-.511719zm0 0" fill="#78b9eb"/><path d="m220.695312 69.785156c-1.421874.476563-2.816406 1.046875-4.164062 1.707032 1.347656-.664063 2.738281-1.238282 4.164062-1.707032zm0 0" fill="#78b9eb"/><path d="m383.566406 120.410156-26.378906 26.378906c-6.257812 6.210938-16.21875 6.636719-22.984375.980469-20.015625-16.457031-43.695313-27.863281-69.046875-33.25v-10.84375c.046875-13.03125-6.925781-25.078125-18.25-31.527343-.453125-.246094-.941406-.433594-1.410156-.65625-1.347656-.683594-2.742188-1.269532-4.175782-1.75-1.296874-.386719-2.621093-.6875-3.960937-.90625-.851563-.167969-1.707031-.417969-2.558594-.519532-1.253906-.078125-2.503906-.09375-3.757812-.042968-1.253907-.050782-2.503907-.035157-3.757813.042968-.851562.09375-1.707031.347656-2.558594.511719-1.339843.226563-2.667968.53125-3.972656.914063-1.425781.472656-2.816406 1.042968-4.164062 1.707031-.46875.222656-.964844.417969-1.425782.664062-11.351562 6.445313-18.347656 18.507813-18.304687 31.5625v10.84375c-25.351563 5.402344-49.03125 16.820313-69.046875 33.292969-6.761719 5.65625-16.722656 5.230469-22.980469-.980469l-26.378906-26.382812c-89.042969 84.253906-92.921875 224.742187-8.667969 313.785156 84.253906 89.039063 224.738282 92.921875 313.78125 8.667969 89.042969-84.253906 92.921875-224.738282 8.667969-313.78125-2.808594-2.96875-5.699219-5.859375-8.667969-8.667969zm-152.554687 254.996094c-51.867188 0-93.910157-42.042969-93.910157-93.90625s42.042969-93.90625 93.910157-93.90625c51.863281 0 93.90625 42.042969 93.90625 93.90625s-42.042969 93.90625-93.90625 93.90625zm0 0" fill="#d8d7da"/><path d="m127.816406 147.769531c20.015625-16.457031 43.695313-27.863281 69.046875-33.25v-12.292969c.019531-12.636718 7.042969-24.21875 18.242188-30.078124.460937-.253907.957031-.433594 1.425781-.664063 1.347656-.660156 2.742188-1.230469 4.164062-1.707031 1.304688-.386719 2.632813-.691406 3.972657-.914063.851562-.164062 1.707031-.410156 2.558593-.511719.148438 0 .273438-.070312.417969-.078124 1.136719-.109376 2.222657 0 3.339844 0s2.203125-.144532 3.339844 0c.144531 0 .269531.058593.417969.078124.851562.101563 1.707031.347657 2.558593.519532 1.339844.21875 2.664063.519531 3.960938.90625 1.433593.484375 2.828125 1.070312 4.175781 1.75.46875.230468.957031.398437 1.410156.65625 11.210938 5.832031 18.261719 17.402344 18.3125 30.042968v12.292969c25.351563 5.402344 49.03125 16.820313 69.046875 33.292969 6.761719 5.65625 16.722657 5.230469 22.980469-.980469l26.378906-26.382812 22.042969-22.042969c6.695313-6.691406 6.695313-17.546875 0-24.242188-.257813-.257812-.527344-.507812-.804687-.753906-99.621094-86.75-247.964844-86.75-347.589844 0-7.109375 6.253906-7.808594 17.085938-1.554688 24.195313.242188.273437.492188.542969.753906.800781l22.042969 22.003906 26.378907 26.378906c6.253906 6.210938 16.214843 6.636719 22.980468.980469zm205.636719-79.691406c9.429687 0 17.074219 7.644531 17.074219 17.074219 0 9.429687-7.644532 17.070312-17.074219 17.070312s-17.074219-7.640625-17.074219-17.070312c0-9.429688 7.644532-17.074219 17.074219-17.074219zm-204.886719 0c9.429688 0 17.074219 7.644531 17.074219 17.074219 0 9.429687-7.644531 17.070312-17.074219 17.070312-9.429687 0-17.074218-7.640625-17.074218-17.070312 0-9.429688 7.644531-17.074219 17.074218-17.074219zm0 0" fill="#ff9478"/><path d="m216.496094 71.492188c-.46875.230468-.964844.410156-1.425782.664062.496094-.253906.992188-.449219 1.425782-.664062zm0 0" fill="#78b9eb"/><path d="m245.523438 71.492188c-1.351563-.679688-2.746094-1.265626-4.175782-1.75 1.433594.480468 2.828125 1.066406 4.175782 1.75zm0 0" fill="#78b9eb"/><path d="m246.90625 72.148438c11.324219 6.449218 18.296875 18.496093 18.25 31.527343v-1.453125c-.023438-12.636718-7.050781-24.21875-18.25-30.074218zm0 0" fill="#78b9eb"/><path d="m224.667969 68.828125c-1.339844.226563-2.667969.53125-3.972657.914063 1.304688-.382813 2.632813-.6875 3.972657-.914063zm0 0" fill="#78b9eb"/><path d="m237.359375 68.835938c-.851563-.167969-1.707031-.417969-2.558594-.519532.851563.101563 1.6875.347656 2.558594.519532zm0 0" fill="#78b9eb"/><path d="m227.253906 68.316406c1.25-.078125 2.503906-.09375 3.757813-.042968-1.121094 0-2.203125-.144532-3.339844 0-.144531-.027344-.273437.023437-.417969.042968zm0 0" fill="#78b9eb"/><path d="m350.527344 85.152344c0 9.429687-7.644532 17.070312-17.074219 17.070312s-17.074219-7.640625-17.074219-17.070312c0-9.429688 7.644532-17.074219 17.074219-17.074219s17.074219 7.644531 17.074219 17.074219zm0 0" fill="#898890"/><path d="m145.640625 85.152344c0 9.429687-7.644531 17.070312-17.074219 17.070312-9.429687 0-17.074218-7.640625-17.074218-17.070312 0-9.429688 7.644531-17.074219 17.074218-17.074219 9.429688 0 17.074219 7.644531 17.074219 17.074219zm0 0" fill="#898890"/><path d="m231.011719 375.40625c51.863281 0 93.90625-42.042969 93.90625-93.90625s-42.042969-93.90625-93.90625-93.90625c-51.867188 0-93.910157 42.042969-93.910157 93.90625s42.042969 93.90625 93.910157 93.90625zm-2.066407-127.992188c18.824219-1.140624 35.007813 13.195313 36.148438 32.019532 1.136719 18.824218-13.199219 35.011718-32.023438 36.148437-18.824218 1.140625-35.007812-13.191406-36.148437-32.015625-1.144531-18.824218 13.191406-35.011718 32.015625-36.152344zm0 0" fill="#898890"/><path d="m233.074219 315.589844c18.824219-1.144532 33.160156-17.328125 32.019531-36.152344-1.144531-18.828125-17.332031-33.160156-36.15625-32.019531-18.820312 1.144531-33.15625 17.328125-32.015625 36.148437 1.140625 18.824219 17.324219 33.164063 36.148437 32.023438zm0 0" fill="#c6c5ca"/><g fill="#3e3d42"><path d="m395.652344 120.390625 15.992187-15.988281c10.023438-10.03125 10.023438-26.289063-.007812-36.316406-.394531-.394532-.800781-.777344-1.222657-1.144532-102.949218-89.253906-255.859374-89.253906-358.808593 0-10.664063 9.351563-11.726563 25.574219-2.375 36.238282.367187.417968.75.828124 1.144531 1.222656l16 15.996094c-89.066406 90.832031-87.636719 236.664062 3.195312 325.730468 39.554688 38.785156 91.761719 62.019532 147.054688 65.433594 4.875.292969 9.714844.4375 14.511719.4375 127.25-.070312 230.371093-103.246094 230.371093-230.5-.105468-60.234375-23.738281-118.042969-65.855468-161.109375zm-333.203125-28.058594c-1.695313-1.6875-2.605469-4.007812-2.511719-6.394531.0625-2.359375 1.113281-4.582031 2.894531-6.132812 96.507813-83.671876 239.847657-83.671876 336.355469 0 1.78125 1.550781 2.832031 3.773437 2.894531 6.132812.09375 2.386719-.816406 4.707031-2.511719 6.394531l-22.042968 22.039063-26.386719 26.390625c-3.152344 3.097656-8.152344 3.273437-11.515625.410156-19.285156-15.800781-41.785156-27.203125-65.929688-33.414063v-5.53125c-.007812-12.027343-5.078124-23.492187-13.96875-31.585937-2.746093-2.433594-5.800781-4.496094-9.082031-6.132813-.667969-.367187-1.382812-.613281-2.074219-.9375-1.589843-.773437-3.226562-1.453124-4.902343-2.023437-1.882813-.5625-3.800781-.984375-5.746094-1.273437-.792969-.128907-1.550781-.375-2.347656-.460938-.132813 0-.261719-.066406-.398438-.074219-1.375-.128906-2.734375 0-4.097656 0-1.367187 0-2.792969-.171875-4.199219 0-.144531 0-.273437.066407-.410156.074219-.804688.09375-1.570312.34375-2.367188.46875-1.933593.28125-3.84375.703125-5.71875 1.265625-1.683593.574219-3.332031 1.257813-4.933593 2.039063-.671875.316406-1.382813.566406-2.039063.921874-3.289062 1.640626-6.351562 3.703126-9.101562 6.140626-8.894532 8.089843-13.96875 19.550781-13.984375 31.578124v5.53125c-24.144531 6.210938-46.648438 17.613282-65.9375 33.414063-3.367188 2.859375-8.355469 2.679687-11.507813-.410156zm314.808593 344.617188c-86.398437 80.183593-221.4375 75.140625-301.617187-11.257813-77.035156-83.007812-75.824219-211.726562 2.753906-293.269531l20.410157 20.410156c1.1875 1.179688 2.484374 2.242188 3.878906 3.167969.449218.308594.9375.503906 1.40625.777344.925781.566406 1.886718 1.074218 2.878906 1.519531.585938.246094 1.210938.390625 1.828125.597656.890625.335938 1.804687.625 2.730469.851563.671875.136718 1.355468.1875 2.039062.273437.890625.136719 1.785156.222657 2.679688.257813.191406 0 .367187.058594.558594.058594.671874 0 1.347656-.117188 2.019531-.171876.675781-.050781 1.230469-.066406 1.84375-.160156.921875-.15625 1.832031-.367187 2.726562-.632812.5625-.144532 1.125-.246094 1.707031-.433594.988282-.363281 1.953126-.785156 2.890626-1.265625.445312-.210937.898437-.367187 1.332031-.605469 1.390625-.769531 2.707031-1.664062 3.9375-2.671875 18.984375-15.558593 41.410156-26.355469 65.410156-31.492187 3.941406-.855469 6.746094-4.351563 6.726563-8.382813v-10.84375c-.144532-11.65625 7.1875-22.101562 18.199218-25.925781.675782-.207031 1.375-.308594 2.066406-.453125.886719-.230469 1.785157-.410156 2.691407-.535156.835937-.042969 1.671875-.042969 2.507812 0 .941407-.054688 1.878907-.054688 2.820313 0 .859375.125 1.714844.300781 2.558594.519531.71875.152344 1.445312.253906 2.144531.46875 11.027343 3.816406 18.371093 14.261719 18.234375 25.925781v10.84375c0 4.027344 2.8125 7.507813 6.753906 8.351563 23.996094 5.136718 46.421875 15.933594 65.402344 31.492187 10.152344 8.445313 25.070312 7.785157 34.4375-1.53125l20.410156-20.410156c82.371094 84.222656 80.867188 219.269531-3.351562 301.640625-.996094.972656-2.003907 1.933594-3.015626 2.886719zm0 0"/><path d="m333.453125 110.761719c14.144531 0 25.613281-11.464844 25.613281-25.609375 0-14.148438-11.46875-25.613282-25.613281-25.613282s-25.609375 11.464844-25.609375 25.613282c0 14.144531 11.464844 25.609375 25.609375 25.609375zm0-34.148438c4.714844 0 8.539063 3.824219 8.539063 8.539063s-3.824219 8.535156-8.539063 8.535156-8.535156-3.820312-8.535156-8.535156 3.820312-8.539063 8.535156-8.539063zm0 0"/><path d="m128.566406 110.761719c14.144532 0 25.609375-11.464844 25.609375-25.609375 0-14.148438-11.464843-25.613282-25.609375-25.613282-14.144531 0-25.613281 11.464844-25.613281 25.613282 0 14.144531 11.46875 25.609375 25.613281 25.609375zm0-34.148438c4.714844 0 8.535156 3.824219 8.535156 8.539063s-3.820312 8.535156-8.535156 8.535156-8.539062-3.820312-8.539062-8.535156 3.824218-8.539063 8.539062-8.539063zm0 0"/><path d="m228.449219 238.894531c-23.53125 1.414063-41.460938 21.636719-40.046875 45.167969 1.351562 22.539062 20.027344 40.125 42.609375 40.125.851562 0 1.757812 0 2.644531-.078125 23.53125-1.429687 41.449219-21.664063 40.019531-45.195313-1.425781-23.53125-21.660156-41.449218-45.191406-40.019531zm28.171875 41.0625c.851562 14.117188-9.90625 26.253907-24.023438 27.105469-14.121094.851562-26.253906-9.90625-27.105468-24.023438-.851563-14.117187 9.898437-26.25 24.015624-27.105468.484376-.042969 1.007813-.042969 1.503907-.042969 13.523437.019531 24.703125 10.554687 25.523437 24.058594zm0 0"/><path d="m231.011719 179.058594c-56.578125 0-102.445313 45.863281-102.445313 102.441406s45.867188 102.445312 102.445313 102.445312c56.574219 0 102.441406-45.867187 102.441406-102.445312-.0625-56.550781-45.890625-102.382812-102.441406-102.441406zm0 187.8125c-47.148438 0-85.371094-38.222656-85.371094-85.371094s38.222656-85.367188 85.371094-85.367188c47.144531 0 85.367187 38.21875 85.367187 85.367188-.050781 47.128906-38.242187 85.320312-85.367187 85.371094zm0 0"/><path d="m91.960938 197.523438c-4.15625-2.230469-9.332032-.675782-11.5625 3.480468-.003907.003906-.003907.007813-.007813.011719-3.210937 6.023437-6.0625 12.230469-8.535156 18.59375-1.714844 4.394531.457031 9.34375 4.851562 11.058594 4.394531 1.714843 9.347657-.460938 11.058594-4.855469 2.222656-5.730469 4.789063-11.320312 7.683594-16.738281 2.226562-4.15625.660156-9.324219-3.488281-11.550781zm0 0"/><path d="m74.023438 239.671875c-4.613282-.96875-9.140626 1.984375-10.109376 6.597656-1.242187 5.902344-2.164062 11.867188-2.765624 17.867188-.46875 4.691406 2.953124 8.875 7.644531 9.347656h.011719.855468c4.382813-.003906 8.046875-3.324219 8.484375-7.683594.539063-5.394531 1.367188-10.753906 2.484375-16.058593.949219-4.601563-2.003906-9.105469-6.605468-10.070313zm0 0"/><path d="m149.839844 412.015625c-5.546875-3.472656-10.875-7.289063-15.945313-11.421875-3.65625-2.988281-9.035156-2.445312-12.019531 1.210938-2.984375 3.652343-2.445312 9.035156 1.210938 12.019531 5.636718 4.59375 11.554687 8.828125 17.722656 12.675781 1.351562.851562 2.914062 1.300781 4.507812 1.300781 4.714844 0 8.539063-3.824219 8.539063-8.539062 0-2.941407-1.519531-5.679688-4.015625-7.238281zm0 0"/><path d="m190.886719 429.882812c-5.644531-1.523437-11.195313-3.367187-16.632813-5.523437-4.378906-1.742187-9.34375.402344-11.082031 4.785156-1.742187 4.382813.402344 9.34375 4.785156 11.085938 6.035157 2.390625 12.203125 4.441406 18.472657 6.136719.730468.199218 1.480468.300781 2.238281.296874 4.714843.007813 8.542969-3.808593 8.546875-8.523437.007812-3.867187-2.589844-7.257813-6.328125-8.257813zm0 0"/><path d="m344.464844 385.140625c-5.0625 5.539063-10.523438 10.703125-16.339844 15.453125-3.652344 2.984375-4.195312 8.363281-1.210938 12.019531 2.984376 3.652344 8.367188 4.195313 12.019532 1.210938 6.453125-5.273438 12.515625-11.011719 18.140625-17.160157 3.183593-3.480468 2.941406-8.882812-.542969-12.066406-3.480469-3.179687-8.882812-2.941406-12.066406.542969zm0 0"/><path d="m381.636719 342.378906c-4.273438-1.996094-9.351563-.152344-11.347657 4.117188-.003906.007812-.003906.011718-.007812.015625-2.601562 5.578125-5.539062 10.996093-8.800781 16.21875-2.496094 4.007812-1.273438 9.28125 2.734375 11.777343 4.007812 2.496094 9.28125 1.269532 11.777344-2.738281 3.632812-5.808593 6.90625-11.835937 9.800781-18.046875 1.988281-4.273437.132812-9.351562-4.144531-11.339844-.003907 0-.007813-.003906-.011719-.003906zm0 0"/><path d="m395.890625 237.015625c-1.15625-4.570313-5.804687-7.335937-10.371094-6.175781-4.570312 1.160156-7.335937 5.804687-6.175781 10.375.019531.082031.042969.160156.0625.238281 1.433594 5.382813 2.574219 10.839844 3.414062 16.347656.796876 4.648438 5.210938 7.769531 9.859376 6.972657 4.519531-.773438 7.621093-4.984376 7.019531-9.53125-.9375-6.140626-2.207031-12.226563-3.808594-18.226563zm0 0"/><path d="m370.648438 217.277344c1.972656 4.285156 7.046874 6.15625 11.328124 4.183594 4.285157-1.972657 6.15625-7.046876 4.183594-11.328126-3.003906-6.503906-6.40625-12.8125-10.191406-18.894531-2.496094-4.007812-7.769531-5.230469-11.777344-2.734375-4.007812 2.496094-5.234375 7.769532-2.738281 11.777344 3.421875 5.464844 6.492187 11.140625 9.195313 16.996094zm0 0"/></g></svg>