<svg id="Capa_1" enable-background="new 0 0 512 512" height="512" viewBox="0 0 512 512" width="512" xmlns="http://www.w3.org/2000/svg"><path d="m321.862 94.121h-91.468c-7.695 0-14.249-5.984-14.522-13.674-.287-8.073 6.173-14.708 14.182-14.708h150.634c7.695 0 14.248 5.983 14.522 13.673.287 8.073-6.172 14.709-14.182 14.709h50.3c11.763 0 21.299 9.536 21.299 21.299s-9.536 21.299-21.299 21.299h-24.296c17.809 0 32.246 14.437 32.246 32.246v122.735l-27.658-1.947v-108.761c0-4.327-3.508-7.835-7.835-7.835h-38.273c-9.927 0-18.319-7.783-18.591-17.707-.282-10.296 7.98-18.731 18.212-18.731h-57.91c-11.962 0-21.621-9.861-21.291-21.897.318-11.601 10.128-20.7 21.734-20.7h14.196z" fill="#dae4ea"/><path d="m450.374 374.555h54.126v29.52h-54.126z" fill="#c6d0da"/><path d="m7.5 374.656h47.407v29.419h-47.407z" fill="#dae4ea"/><circle cx="125.401" cy="401.018" fill="#808b95" r="45.243"/><circle cx="379.693" cy="401.018" fill="#808b95" r="45.243"/><circle cx="379.693" cy="401.018" fill="#dae4ea" r="19.466"/><circle cx="125.401" cy="401.018" fill="#dae4ea" r="19.466"/><path d="m474.695 294.192-119.827-8.435-23.644-55.962c-6.554-15.512-21.757-25.593-38.596-25.593h-136.98c-16.916 0-32.173 10.172-38.678 25.787l-23.232 55.768-62.806 7.875c-10.481 1.314-18.345 10.225-18.345 20.788v60.236h42.32v22.349h25.437c2.032-23.106 21.423-41.23 45.056-41.23s43.024 18.124 45.056 41.23h164.18c2.032-23.106 21.423-41.23 45.056-41.23 23.634 0 43.024 18.124 45.056 41.23h25.624v-22.45h49.039v-53.845c.002-13.957-10.793-25.538-24.716-26.518z" fill="#e28086"/><g fill="#dd636e"><path d="m54.907 377.005v20h25.437c.642-7.304 3.023-14.107 6.72-20z"/><path d="m163.737 377.005c3.697 5.893 6.078 12.696 6.72 20h164.18c.642-7.304 3.023-14.107 6.72-20z"/><path d="m474.695 294.192-16.412-1.155c.733 2.433 1.129 5.01 1.129 7.673v18.131c0 26.792-18.121 49.34-42.772 56.089 4.487 6.347 7.39 13.896 8.109 22.074h25.624v-22.45h49.039v-53.844c.001-13.957-10.794-25.538-24.717-26.518z"/></g><path d="m160.764 229.202c-9.921 0-18.868 5.966-22.683 15.123l-17.26 41.432h69.856v-56.555z" fill="#d5d8f1"/><path d="m310.176 244.212c-3.844-9.097-12.76-15.009-22.636-15.009h-71.862v56.555h112.051z" fill="#d5d8f1"/><path d="m160.764 229.202c-.034.034-.053.053-.087.087v17.371c0 10.547-8.55 19.097-19.097 19.097h-12.428l-8.332 20h69.856v-56.555z" fill="#bec3ea"/><path d="m310.176 244.212c-3.844-9.097-12.76-15.009-22.636-15.009h-5.256l4.236 10.026c5.319 12.59-3.924 26.529-17.591 26.529h-53.251v20h112.051z" fill="#bec3ea"/><path d="m441.941 322.806v11.916c0 8.183 6.634 14.817 14.817 14.817h10.183v-26.733z" fill="#e4936b"/><path d="m466.941 349.539v-26.733h-7.674c-.629 9.336-3.452 18.069-7.973 25.679 1.692.672 3.532 1.053 5.464 1.053h10.183z" fill="#e27d47"/><path d="m466.941 322.806h32.367v26.733h-32.367z" fill="#e7ecf1"/><path d="m39.588 335.817c0-7.091-5.749-12.84-12.84-12.84h-14.16v25.839h27z" fill="#f6f9f9"/><path d="m12.587 348.817h27v25.839h-27z" fill="#e4936b"/><path d="m506.913 367.451v-46.741c0-17.814-13.92-32.749-31.69-34l-28.444-2.002v-68.838l3.704-3.217c7.53-6.541 18.954-6.139 26.007.914 2.929 2.929 7.678 2.929 10.606 0 2.929-2.929 2.929-7.678 0-10.606-10.801-10.801-27.342-12.868-40.317-5.873v-28.124c0-9.662-3.465-18.529-9.218-25.425 12.894-2.855 22.567-14.379 22.567-28.12 0-15.88-12.919-28.799-28.799-28.799h-29.652c.767-2.375 1.121-4.896 1.029-7.475-.417-11.724-10.088-20.907-22.017-20.907h-11.239c-4.142 0-7.5 3.358-7.5 7.5s3.358 7.5 7.5 7.5h11.237c3.748 0 6.9 2.889 7.027 6.44.136 3.82-2.908 6.942-6.687 6.942-4.142 0-7.5 3.358-7.5 7.5s3.358 7.5 7.5 7.5h50.3c7.609 0 13.799 6.19 13.799 13.799s-6.19 13.799-13.799 13.799h-24.296c-4.142 0-7.5 3.358-7.5 7.5s3.358 7.5 7.5 7.5c13.645 0 24.746 11.101 24.746 24.746v40.066l-12.658 10.993v-39.031c0-8.456-6.879-15.335-15.335-15.335h-38.273c-5.959 0-10.937-4.671-11.094-10.413-.167-6.085 4.706-11.025 10.714-11.025 4.142 0 7.5-3.358 7.5-7.5s-3.358-7.5-7.5-7.5h-57.91c-7.71 0-14.008-6.338-13.793-14.192.203-7.392 6.589-13.406 14.236-13.406h14.197c4.142 0 7.5-3.358 7.5-7.5s-3.358-7.5-7.5-7.5h-91.468c-3.749 0-6.901-2.889-7.027-6.44-.136-3.82 2.908-6.942 6.687-6.942h104.397c4.142 0 7.5-3.358 7.5-7.5s-3.358-7.5-7.5-7.5h-104.397c-12.295 0-22.114 10.174-21.677 22.475.416 11.724 10.087 20.908 22.017 20.908h51.653c-2.186 3.886-3.484 8.308-3.612 12.995-.445 16.223 12.541 29.603 28.788 29.603h34.514c-1.622 3.533-2.423 7.421-2.313 11.436.378 13.786 12.081 25.001 26.088 25.001h38.273c.185 0 .335.15.335.335v52.058l-46.365 40.267-19.621-46.441c-7.744-18.33-25.606-30.174-45.505-30.174h-136.98c-20.008 0-37.907 11.934-45.601 30.403l-21.559 51.752-58.49 7.333c-14.202 1.781-24.912 13.917-24.912 28.23v53.132c-2.957 1.005-5.086 3.806-5.086 7.104v29.419c0 4.142 3.358 7.5 7.5 7.5h47.407c3.998 0 7.265-3.128 7.487-7.07h10.377c1.801 27.464 24.718 49.257 52.629 49.257s50.828-21.793 52.629-49.257h96.925c4.142 0 7.5-3.358 7.5-7.5s-3.358-7.5-7.5-7.5h-98.076c-5.267-23.564-26.348-41.23-51.477-41.23s-46.21 17.666-51.477 41.23h-11.517v-14.849c0-4.142-3.358-7.5-7.5-7.5h-7.82c0-10.44 0-19.971 0-31.339 0-11.215-9.125-20.34-20.34-20.34h-6.66v-1.057c0-6.767 5.063-12.505 11.778-13.347l62.807-7.875c2.669-.335 4.956-2.074 5.99-4.558l23.232-55.769c5.357-12.861 17.822-21.171 31.754-21.171h136.98c13.856 0 26.294 8.248 31.688 21.012l23.586 55.825c1.033 2.586 3.45 4.452 6.354 4.693 1.452.121-13.785-.968 119.913 8.442 8.083.569 14.743 6.194 16.958 13.632-15.437 0-33.394 0-49.186 0-4.142 0-7.5 3.358-7.5 7.5v11.916c0 12.305 10.011 22.316 22.317 22.316h35.155v10.016h-41.539c-4.142 0-7.5 3.358-7.5 7.5v14.95h-11.703c-5.267-23.564-26.348-41.23-51.477-41.23s-46.21 17.666-51.477 41.23h-18.262c-4.142 0-7.5 3.358-7.5 7.5s3.358 7.5 7.5 7.5h17.11c1.801 27.464 24.718 49.257 52.629 49.257s50.828-21.793 52.629-49.257h10.564c.223 3.942 3.49 7.07 7.487 7.07h54.126c4.142 0 7.5-3.358 7.5-7.5v-29.521c0-3.294-2.129-6.095-5.087-7.1zm-381.512-4.176c20.853 0 37.743 16.972 37.743 37.743 0 20.812-16.932 37.744-37.743 37.744s-37.743-16.932-37.743-37.744c0-20.778 16.9-37.743 37.743-37.743zm-77.994 33.3h-32.407v-14.419h32.407zm-27.32-29.419v-10.84h12v10.84zm6.661-36.679c2.944 0 5.34 2.396 5.34 5.34v5.5h-12v-10.839h6.66zm405.03-101.58v54.755c-3.225-.227-9.444-.665-12.658-.892v-42.87zm-27.658 52.809-30.663-2.158 30.663-26.63zm45.32 53.016v-4.416h10v11.732h-2.683c-4.034.001-7.317-3.282-7.317-7.316zm42.368 7.317h-17.368v-11.732h17.367v11.732zm-112.115 96.723c-20.812 0-37.743-16.932-37.743-37.744s16.932-37.743 37.743-37.743c20.853 0 37.743 16.972 37.743 37.743.001 20.812-16.931 37.744-37.743 37.744zm117.307-42.187h-39.126v-14.521h39.126z"/><path d="m379.693 374.052c-14.869 0-26.966 12.097-26.966 26.966s12.097 26.966 26.966 26.966 26.966-12.097 26.966-26.966-12.096-26.966-26.966-26.966zm0 38.932c-6.598 0-11.966-5.368-11.966-11.966s5.368-11.966 11.966-11.966 11.966 5.368 11.966 11.966-5.367 11.966-11.966 11.966z"/><path d="m125.401 427.984c14.869 0 26.966-12.097 26.966-26.966s-12.097-26.966-26.966-26.966-26.966 12.097-26.966 26.966 12.097 26.966 26.966 26.966zm0-38.932c6.598 0 11.966 5.368 11.966 11.966s-5.368 11.966-11.966 11.966-11.966-5.368-11.966-11.966 5.368-11.966 11.966-11.966z"/><path d="m223.44 303.257c-4.142 0-7.5 3.358-7.5 7.5s3.358 7.5 7.5 7.5h26.58c4.142 0 7.5-3.358 7.5-7.5s-3.358-7.5-7.5-7.5z"/><path d="m160.764 221.702c-12.99 0-24.611 7.748-29.607 19.739l-17.259 41.432c-.964 2.315-.708 4.958.683 7.045s3.733 3.339 6.24 3.339h69.856c4.142 0 7.5-3.358 7.5-7.5v-56.555c0-4.142-3.358-7.5-7.5-7.5zm22.414 56.555h-51.108l12.934-31.047c2.659-6.383 8.846-10.508 15.76-10.508h22.414z"/><path d="m333.979 289.902c1.39-2.095 1.637-4.748.658-7.063l-17.553-41.546c-5.028-11.9-16.625-19.59-29.544-19.59h-23.81c-4.142 0-7.5 3.358-7.5 7.5s3.358 7.5 7.5 7.5h23.81c6.877 0 13.05 4.093 15.727 10.428l13.151 31.127h-93.24v-41.555h5.552c4.142 0 7.5-3.358 7.5-7.5s-3.358-7.5-7.5-7.5h-13.052c-4.142 0-7.5 3.358-7.5 7.5v56.555c0 4.142 3.358 7.5 7.5 7.5h112.051c2.514-.001 4.861-1.26 6.25-3.356z"/></svg>