<svg id="COLOR_ICON" height="512" viewBox="0 0 74 74" width="512" xmlns="http://www.w3.org/2000/svg" data-name="COLOR ICON"><path d="m21.927 26.019h30.052s2.082 6.62 8.968 5.768l6.6 24.787h-61.106l6.568-24.652c6.755.853 8.918-5.903 8.918-5.903z" fill="#fe7058"/><path d="m67.555 56.57v5.937a4.778 4.778 0 0 1 -4.778 4.778h-51.554a4.778 4.778 0 0 1 -4.778-4.778v-5.937z" fill="#e1e6e9"/><path d="m62.777 67.785h-51.554a5.285 5.285 0 0 1 -5.278-5.279v-5.936a.5.5 0 0 1 .5-.5h61.11a.5.5 0 0 1 .5.5v5.936a5.284 5.284 0 0 1 -5.278 5.279zm-55.832-10.715v5.436a4.284 4.284 0 0 0 4.278 4.279h51.554a4.284 4.284 0 0 0 4.278-4.279v-5.436z" fill="#323c6b"/><path d="m67.56 56.57v5.94a4.771 4.771 0 0 1 -4.78 4.77h-3.4a4.771 4.771 0 0 0 4.78-4.77v-5.94z" fill="#d5d6db"/><path d="m29.286 23.919v2.1h-4.36v-2.1a1.24 1.24 0 0 1 1.24-1.24h1.88a1.24 1.24 0 0 1 1.24 1.24z" fill="#e1e6e9"/><path d="m29.287 26.52h-4.361a.5.5 0 0 1 -.5-.5v-2.1a1.743 1.743 0 0 1 1.741-1.74h1.879a1.743 1.743 0 0 1 1.741 1.74v2.1a.5.5 0 0 1 -.5.5zm-3.861-1h3.361v-1.6a.741.741 0 0 0 -.741-.74h-1.879a.741.741 0 0 0 -.741.74z" fill="#323c6b"/><path d="m49.066 23.919v2.1h-4.366v-2.1a1.246 1.246 0 0 1 1.24-1.24h1.89a1.246 1.246 0 0 1 1.236 1.24z" fill="#e1e6e9"/><path d="m49.066 26.52h-4.366a.5.5 0 0 1 -.5-.5v-2.1a1.743 1.743 0 0 1 1.741-1.74h1.89a1.742 1.742 0 0 1 1.739 1.74v2.1a.5.5 0 0 1 -.504.5zm-3.87-1h3.37v-1.6a.749.749 0 0 0 -.739-.74h-1.89a.75.75 0 0 0 -.741.74z" fill="#323c6b"/><path d="m18.963 22.682c.02-1.385.295-3.85 1.071-4.432 5.166-3.874 28.76-3.874 33.948 0 .777.582 1.052 3.047 1.072 4.432h15.908a12.643 12.643 0 0 0 -4.648-10.865c-10.377-7.783-48.257-7.783-58.612 0-2.373 1.771-5.089 4.683-4.656 10.865z" fill="#fe7058"/><path d="m67.546 56.569h-3l-6.64-24.91a8.845 8.845 0 0 0 3.04.13z" fill="#ea6453"/><path d="m66.314 11.816c-10.377-7.782-48.257-7.782-58.612 0a14.357 14.357 0 0 0 -1.52 1.3c12.061-6.818 47.193-6.506 57.129.945a12.551 12.551 0 0 1 4.617 8.616h3.034a12.647 12.647 0 0 0 -4.648-10.861z" fill="#ea6453"/><path d="m15.231 28.765h-8.453a3.509 3.509 0 0 1 -3.732-3.23v-2.853h15.917v2.853a3.509 3.509 0 0 1 -3.732 3.23z" fill="#e1e6e9"/><path d="m15.231 29.265h-8.453a4.01 4.01 0 0 1 -4.232-3.73v-2.852a.5.5 0 0 1 .5-.5h15.917a.5.5 0 0 1 .5.5v2.852a4.01 4.01 0 0 1 -4.232 3.73zm-11.685-6.082v2.352a3.017 3.017 0 0 0 3.232 2.73h8.453a3.017 3.017 0 0 0 3.232-2.73v-2.352z" fill="#323c6b"/><path d="m67.23 28.765h-8.444a3.509 3.509 0 0 1 -3.732-3.23v-2.853h15.908v2.853a3.509 3.509 0 0 1 -3.732 3.23z" fill="#e1e6e9"/><path d="m70.96 22.68v2.85a3.5 3.5 0 0 1 -3.73 3.23h-3.03a3.5 3.5 0 0 0 3.73-3.23v-2.85z" fill="#d5d6db"/><path d="m70.962 23.183h-15.908a.5.5 0 0 1 -.5-.494c-.027-1.886-.418-3.7-.872-4.039-5-3.731-28.372-3.732-33.348 0-.453.34-.844 2.153-.871 4.039a.5.5 0 0 1 -.5.494h-15.917a.5.5 0 0 1 -.5-.465c-.458-6.54 2.552-9.582 4.857-11.3 10.5-7.893 48.684-7.894 59.21 0a13.071 13.071 0 0 1 4.847 11.3.5.5 0 0 1 -.498.465zm-15.425-1h14.953a12.207 12.207 0 0 0 -4.475-9.967c-10.315-7.734-47.722-7.734-58.015 0-2.236 1.669-4.742 4.305-4.485 9.967h14.965c.056-1.1.287-3.607 1.255-4.333 5.316-3.987 29.208-3.987 34.547 0 .968.726 1.199 3.229 1.255 4.333z" fill="#323c6b"/><path d="m67.551 57.074h-61.11a.5.5 0 0 1 -.483-.629l6.568-24.652a.505.505 0 0 1 .546-.367c6.253.785 8.3-5.3 8.379-5.56a.5.5 0 0 1 .476-.347h30.052a.5.5 0 0 1 .476.349c.081.254 2.049 6.208 8.431 5.423a.5.5 0 0 1 .544.367l6.6 24.787a.5.5 0 0 1 -.483.629zm-60.459-1h59.808l-6.326-23.746c-5.968.492-8.382-4.434-8.941-5.809h-29.362c-.565 1.388-3.027 6.425-8.889 5.944z" fill="#323c6b"/><path d="m62.777 67.785h-51.554a5.285 5.285 0 0 1 -5.278-5.279v-5.936a.5.5 0 0 1 .5-.5h61.11a.5.5 0 0 1 .5.5v5.936a5.284 5.284 0 0 1 -5.278 5.279zm-55.832-10.715v5.436a4.284 4.284 0 0 0 4.278 4.279h51.554a4.284 4.284 0 0 0 4.278-4.279v-5.436z" fill="#323c6b"/><circle cx="37" cy="41.9" fill="#d5d6db" r="10.038"/><g fill="#323c6b"><path d="m37 35.44a.509.509 0 0 1 -.35-.15.469.469 0 0 1 -.15-.35.491.491 0 0 1 .15-.36.521.521 0 0 1 .7 0 .491.491 0 0 1 .15.36.469.469 0 0 1 -.15.35.509.509 0 0 1 -.35.15z"/><path d="m32.91 36.77a.554.554 0 0 1 -.36-.15.5.5 0 0 1 -.14-.35.543.543 0 0 1 .14-.36.505.505 0 0 1 .86.36.513.513 0 0 1 -.5.5z"/><path d="m30.38 40.25a.508.508 0 0 1 -.36-.15.548.548 0 0 1 -.14-.35.406.406 0 0 1 .04-.19.478.478 0 0 1 .1-.17.534.534 0 0 1 .71 0 .5.5 0 0 1 .11.17.585.585 0 0 1 .04.19.646.646 0 0 1 -.04.19.457.457 0 0 1 -.11.16.469.469 0 0 1 -.35.15z"/><path d="m30.38 44.55a.543.543 0 0 1 -.36-.14.585.585 0 0 1 -.1-.17.406.406 0 0 1 -.04-.19.548.548 0 0 1 .14-.35.513.513 0 0 1 .71 0 .457.457 0 0 1 .11.16.646.646 0 0 1 .04.19.585.585 0 0 1 -.04.19.619.619 0 0 1 -.11.17.5.5 0 0 1 -.35.14z"/><path d="m32.91 48.03a.48.48 0 0 1 -.5-.5.5.5 0 0 1 .14-.35.524.524 0 0 1 .71 0 .509.509 0 0 1 .15.35.554.554 0 0 1 -.15.36.5.5 0 0 1 -.35.14z"/><path d="m37 49.36a.5.5 0 0 1 -.35-.14.491.491 0 0 1 -.15-.36.469.469 0 0 1 .15-.35.5.5 0 0 1 .7 0 .469.469 0 0 1 .15.35.508.508 0 0 1 -.15.36.5.5 0 0 1 -.35.14z"/><path d="m41.09 48.03a.5.5 0 0 1 -.35-.14.554.554 0 0 1 -.15-.36.505.505 0 0 1 .86-.35.5.5 0 0 1 .14.35.48.48 0 0 1 -.5.5z"/><path d="m43.62 44.55a.469.469 0 0 1 -.35-.15.5.5 0 1 1 .71-.7.507.507 0 0 1 0 .7.491.491 0 0 1 -.36.15z"/><path d="m43.62 40.25a.469.469 0 0 1 -.35-.15.457.457 0 0 1 -.11-.16.646.646 0 0 1 -.04-.19.554.554 0 0 1 .15-.36.534.534 0 0 1 .71 0 .543.543 0 0 1 .14.36.5.5 0 0 1 -.14.35.508.508 0 0 1 -.36.15z"/><path d="m41.09 36.77a.513.513 0 0 1 -.5-.5.554.554 0 0 1 .15-.36.534.534 0 0 1 .71 0 .543.543 0 0 1 .14.36.5.5 0 0 1 -.14.35.554.554 0 0 1 -.36.15z"/><path d="m11.413 7.058a.5.5 0 0 1 -.172-.969q.665-.245 1.354-.468a.5.5 0 1 1 .31.951c-.447.145-.888.3-1.32.455a.492.492 0 0 1 -.172.031z"/><path d="m15.833 5.723a.5.5 0 0 1 -.12-.985 71.078 71.078 0 0 1 8.645-1.519.5.5 0 0 1 .117.993 70.051 70.051 0 0 0 -8.521 1.5.507.507 0 0 1 -.121.011z"/><path d="m62.777 70.785h-.4a.5.5 0 0 1 0-1h.4a7.29 7.29 0 0 0 6.623-4.285.5.5 0 0 1 .911.412 8.291 8.291 0 0 1 -7.534 4.873z"/><path d="m59.854 70.785h-.729a.5.5 0 0 1 0-1h.729a.5.5 0 1 1 0 1z"/></g><path d="m35.25 64.365h-10.667a.65.65 0 0 1 0-1.3h10.667a.65.65 0 1 1 0 1.3z" fill="#fff"/><path d="m21.88 64.365h-.808a.65.65 0 1 1 0-1.3h.808a.65.65 0 1 1 0 1.3z" fill="#fff"/><path d="m37 52.438a10.538 10.538 0 1 1 10.538-10.538 10.55 10.55 0 0 1 -10.538 10.538zm0-20.076a9.538 9.538 0 1 0 9.538 9.538 9.549 9.549 0 0 0 -9.538-9.538z" fill="#323c6b"/><path d="m67.229 29.265h-8.443a4.01 4.01 0 0 1 -4.232-3.73v-2.852a.5.5 0 0 1 .5-.5h15.908a.5.5 0 0 1 .5.5v2.852a4.011 4.011 0 0 1 -4.233 3.73zm-11.675-6.082v2.352a3.017 3.017 0 0 0 3.232 2.73h8.443a3.017 3.017 0 0 0 3.233-2.73v-2.352z" fill="#323c6b"/></svg>