<?xml version="1.0"?>
<svg xmlns="http://www.w3.org/2000/svg" id="Layer_1" data-name="Layer 1" viewBox="0 0 512 512" width="512" height="512"><title>Service Station map</title><path d="M435.62,205.94a172.747,172.747,0,0,1-10.72,71.82c-8.9,23.98-23.39,45.57-41.15,64.18L263.22,468.24,256,475.8l-7.22-7.56L128.25,341.94C110.49,323.33,96,301.74,87.1,277.76a172.747,172.747,0,0,1-10.72-71.82C82.5,115.93,155.57,36.2,256,36.2S429.5,115.93,435.62,205.94ZM381,208.78a125,125,0,1,0-125,125A124.994,124.994,0,0,0,381,208.78Z" style="fill:#e48e66"/><path d="M226.75,209.66H202.88l-6.63,22.8v45.91a13.258,13.258,0,0,0,13.26,13.26h10.61a13.264,13.264,0,0,0,13.26-13.26V232.46ZM256,83.78a125,125,0,1,1-125,125A124.994,124.994,0,0,1,256,83.78Zm61,75.56a37.3,37.3,0,0,0-20.66-33.39v21.39l-16.53,11.01-16.75-11.72.07-20.7h-.01a37.31,37.31,0,0,0,3.53,68.36v84.29a13.055,13.055,0,0,0,26.11,0V194.29A37.306,37.306,0,0,0,317,159.34Z" style="fill:#f8ec7d"/><path d="M296.34,125.95a37.314,37.314,0,0,1-3.58,68.34v84.29a13.055,13.055,0,0,1-26.11,0V194.29a37.31,37.31,0,0,1-3.53-68.36h.01l-.07,20.7,16.75,11.72,16.53-11.01Z" style="fill:#6fe3ff"/><path d="M233.38,232.46v45.91a13.264,13.264,0,0,1-13.26,13.26H209.51a13.258,13.258,0,0,1-13.26-13.26V232.46l6.63-22.8h23.87Z" style="fill:#6fe3ff"/><path d="M123.186,346.772l120.532,126.3,7.22,7.56a7,7,0,0,0,10.124,0L388.814,346.772c19.479-20.411,33.828-42.811,42.649-66.579A178.86,178.86,0,0,0,442.6,205.465a191.151,191.151,0,0,0-56.51-123.13,185.826,185.826,0,0,0-260.188,0A191.151,191.151,0,0,0,69.4,205.465,178.859,178.859,0,0,0,80.538,280.2C89.358,303.961,103.707,326.361,123.186,346.772ZM83.364,206.415A177.156,177.156,0,0,1,135.742,92.3a171.826,171.826,0,0,1,240.516,0,177.156,177.156,0,0,1,52.378,114.117,164.946,164.946,0,0,1-10.3,68.909c-8.153,21.97-21.494,42.757-39.651,61.783l-120.528,126.3L256,465.665,133.314,337.107c-18.157-19.026-31.5-39.813-39.65-61.781A164.945,164.945,0,0,1,83.364,206.415Z" style="fill:#63316d"/><path d="M256,340.78c72.785,0,132-59.215,132-132s-59.215-132-132-132S124,136,124,208.78,183.215,340.78,256,340.78Zm0-250a118,118,0,1,1-118,118A118.134,118.134,0,0,1,256,90.78Z" style="fill:#63316d"/><path d="M193.6,216.519,189.4,230.505a7.2,7.2,0,0,0-.4,1.955v45.91A20.816,20.816,0,0,0,209.51,299h10.61c11.172,0,19.88-9.458,19.88-20.63V232.46a6.935,6.935,0,0,0-.088-1.955l-3.972-13.986A6.811,6.811,0,0,0,234.63,203H222V126.73a7,7,0,0,0-14,0V203H195a6.816,6.816,0,0,0-1.405,13.519ZM226,278.37c0,3.452-2.428,6.63-5.88,6.63H209.51a6.811,6.811,0,0,1-6.51-6.63V233.457L208.134,217H221.5l4.5,16.457Z" style="fill:#63316d"/><path d="M260,198.846V278.58a19.718,19.718,0,0,0,5.7,14.18A20.1,20.1,0,0,0,300,278.58V198.846c14-7.478,24.12-22.784,24.12-39.506a44.144,44.144,0,0,0-24.592-39.652,7.39,7.39,0,0,0-7.009.308A7.2,7.2,0,0,0,289,125.95v17.642l-9.263,6.283-9.75-6.882.1-17.039A6.977,6.977,0,0,0,260,119.662a44.308,44.308,0,0,0,0,79.184Zm-3.919-58.516-.021,6.276a7,7,0,0,0,2.987,5.759l16.75,11.72a7,7,0,0,0,7.893.091l16.36-11.01A6.846,6.846,0,0,0,303,147.34v-6.994c5,5.274,6.83,11.915,6.83,18.994a30.251,30.251,0,0,1-19.485,28.393A6.818,6.818,0,0,0,286,194.29v84.29a6.161,6.161,0,0,1-6.17,6.05,5.764,5.764,0,0,1-4.176-1.78A5.879,5.879,0,0,1,274,278.58V194.29a7.163,7.163,0,0,0-4.725-6.557A30.518,30.518,0,0,1,249.5,159.34,30.091,30.091,0,0,1,256.081,140.33Z" style="fill:#63316d"/></svg>
